# xmcd CD database file
#
# Track frame offsets:
#	150
#	19582
#	41610
#
# Disc length: 810 seconds
#
# Revision: 6
# Processed by: cddbd v1.5.2PL0 Copyright (c) Steve Scherf et al.
# Submitted via: CDex 1.60beta1-cs1
#
DISCID=19032803
DTITLE=松浦亜弥 - LOVE涙色
DYEAR=2001
DGENRE=JPop
TTITLE0=LOVE涙色
TTITLE1=○○ -女子校生の主張-
TTITLE2=LOVE涙色 (Instrumental)
EXTD=YEAR: 2001
EXTT0=
EXTT1=
EXTT2=
PLAYORDER=
